<svg xmlns="http://www.w3.org/2000/svg" viewBox="0 0 50 50" id="user">
  <path fill="#ef5261" d="M45.79 41v8H3.22v-8a10 10 0 0 1 5.66-8.3c2.74-1.14 6.23-2.6 8.19-3.45l1.53-.64h11.92c.18.07.71.32 1.49.64 2 .82 5.38 2.28 8.12 3.42A9.83 9.83 0 0 1 45.79 41Z"></path>
  <path fill="#dcb757" d="M18.61 25.67v5a3.92 3.92 0 0 0 3.91 3.92H26a3.92 3.92 0 0 0 3.91-3.92v-5Z"></path>
  <path fill="#da364c" d="M30.52 28.64a6 6 0 0 1-11.92 0l-1.53.64a7.52 7.52 0 0 0 14.94 0c-.78-.28-1.31-.57-1.49-.64Z"></path>
  <path fill="#efc75e" d="M33 20.85A7.44 7.44 0 0 1 30.91 26c-1.41 1.49-3.55 3.69-6.27 3.66s-4.82-2.19-6.23-3.66a7.44 7.44 0 0 1-2.07-5.13c0-3 .35-8 2.79-10.06a7.89 7.89 0 0 1 5.55-1.95 7.93 7.93 0 0 1 5.51 1.95C32.63 12.83 33 17.82 33 20.85Z"></path>
  <path fill="#62667c" d="M22.38 9.28S27 8.6 27.3 10.77C28.24 16.49 31 17 31 17s2 3.18.93 6.21-3.22 3.53-2.64 6.18c.38 1.75 3 8.15 6.39 9.34 0 0 1.4 1 3.51-3.42 0 0 1.29.08 2.49-2.47s-.11-5.57-1.25-6.13S38 21.75 38 21.75a41 41 0 0 0-2.3-12.81C33.18 3.11 28.58.77 22.77 1c0 0-5.82 1.37-6.95 5.55s-4.38 7.88-4.52 9.31-1 5.26-.49 6.75 3 4.18.09 6.09a2.23 2.23 0 0 0-.78 2.15 1.55 1.55 0 0 1-1.44.42 6.68 6.68 0 0 0 3.92 4.53 3.25 3.25 0 0 0 4-1.13c1.51-2.36 2.9-6 2.36-9.09Z"></path>
  <path fill="#efc75e" d="M24.64 29.64c-2.68 0-4.82-2.17-6.23-3.66a7.44 7.44 0 0 1-2.07-5.13c0-3 .35-8 2.79-10.06a7.05 7.05 0 0 1 5.55-1.58Z"></path>
</svg>
